<?xml version="1.0" standalone="no"?><!DOCTYPE svg PUBLIC "-//W3C//DTD SVG 1.1//EN" "http://www.w3.org/Graphics/SVG/1.1/DTD/svg11.dtd"><svg class="icon" width="200px" height="200.00px" viewBox="0 0 1024 1024" version="1.1" xmlns="http://www.w3.org/2000/svg"><path fill="#333333" d="M817.456389 1021.043668 206.606033 1021.043668c-112.479771 0-203.683982-91.202165-203.683982-203.617467L2.922051 206.575846c0-112.543216 91.204212-203.614397 203.683982-203.614397l610.850355 0c112.479771 0 203.617467 91.070158 203.617467 203.614397l0 610.850355C1021.073856 929.841503 929.936159 1021.043668 817.456389 1021.043668L817.456389 1021.043668 817.456389 1021.043668zM206.606033 138.574079c-37.514405 0-67.938322 30.487362-67.938322 68.001767l0 610.850355c0 37.518498 30.422893 67.741847 67.938322 67.741847l610.850355 0c37.45096 0 67.806315-30.223349 67.806315-67.741847L885.262704 206.575846c0-37.514405-30.355355-68.001767-67.806315-68.001767L206.606033 138.574079 206.606033 138.574079 206.606033 138.574079z" /></svg>